<svg width="12" height="12" viewBox="0 0 12 12" fill="none" xmlns="http://www.w3.org/2000/svg">
<path d="M5.99763 0C6.25797 0 6.47319 0.193386 6.50726 0.444416L6.512 0.514203L6.51282 5.48593H11.4858C11.7698 5.48593 12 5.71621 12 6.00024C12 6.26062 11.8065 6.4758 11.5556 6.50988L11.4858 6.51455H6.51282L6.51419 11.4856C6.51426 11.7696 6.28409 12 6.0001 12C5.73977 12 5.52455 11.8066 5.49047 11.5556L5.48574 11.4858L5.48437 6.51455H0.514224C0.230222 6.51455 0 6.28427 0 6.00024C0 5.73986 0.193451 5.52468 0.444447 5.4906L0.514224 5.48593H5.48437L5.48355 0.514409C5.48348 0.230368 5.71365 0 5.99763 0Z" fill="white"/>
</svg>
