<svg width="22" height="22" viewBox="0 0 22 22" fill="none" xmlns="http://www.w3.org/2000/svg">
<path d="M11 0C4.92487 0 0 4.92487 0 11C0 17.0751 4.92487 22 11 22C17.0751 22 22 17.0751 22 11C22 4.92487 17.0751 0 11 0ZM2.75 11C2.75 6.44365 6.44365 2.75 11 2.75C15.5564 2.75 19.25 6.44365 19.25 11C19.25 15.5564 15.5564 19.25 11 19.25C6.44365 19.25 2.75 15.5564 2.75 11ZM15.639 7.73606C16.1759 8.27304 16.1759 9.14363 15.639 9.68064L10.5973 14.7223C10.0603 15.2592 9.18968 15.2592 8.65273 14.7223L6.8194 12.889C6.28242 12.352 6.28242 11.4813 6.8194 10.9444C7.35637 10.4075 8.22696 10.4075 8.76394 10.9444L9.625 11.8055L13.6944 7.73606C14.2313 7.19909 15.102 7.19909 15.639 7.73606Z" fill="#1D4531"/>
</svg>
