<svg width="21" height="15" viewBox="0 0 21 15" fill="none" xmlns="http://www.w3.org/2000/svg">
<path d="M0.752813 12.9997H19.2528C19.6671 12.9997 20.0028 13.3355 20.0028 13.7497C20.0028 14.1294 19.7207 14.4432 19.3546 14.4928L19.2528 14.4997H0.752813C0.338593 14.4997 0.00281334 14.1639 0.00281334 13.7497C0.00281334 13.37 0.284963 13.0562 0.651043 13.0065L0.752813 12.9997H19.2528H0.752813ZM0.752813 6.5027H19.2528C19.6671 6.5027 20.0028 6.8385 20.0028 7.2527C20.0028 7.6324 19.7207 7.9462 19.3546 7.9959L19.2528 8.0027H0.752813C0.338593 8.0027 0.00281334 7.6669 0.00281334 7.2527C0.00281334 6.873 0.284963 6.5592 0.651043 6.5095L0.752813 6.5027H19.2528H0.752813ZM0.751953 0.00292969H19.252C19.6662 0.00292969 20.002 0.33872 20.002 0.75293C20.002 1.13263 19.7198 1.44642 19.3538 1.49608L19.252 1.50293H0.751953C0.337733 1.50293 0.00195312 1.16714 0.00195312 0.75293C0.00195312 0.37323 0.284103 0.0594395 0.650183 0.00977945L0.751953 0.00292969H19.252H0.751953Z" fill="white"/>
</svg>
