<svg width="273" height="273" viewBox="0 0 273 273" fill="none" xmlns="http://www.w3.org/2000/svg">
<path d="M136.5 0C61.1131 0 0 61.1131 0 136.5C0 211.887 61.1131 273 136.5 273C211.887 273 273 211.887 273 136.5C273 61.1131 211.887 0 136.5 0ZM34.125 136.5C34.125 79.9599 79.9599 34.125 136.5 34.125C193.041 34.125 238.875 79.9599 238.875 136.5C238.875 193.041 193.041 238.875 136.5 238.875C79.9599 238.875 34.125 193.041 34.125 136.5ZM194.065 95.9975C200.728 102.661 200.728 113.464 194.065 120.128L131.503 182.69C124.839 189.353 114.036 189.353 107.372 182.69L84.6225 159.94C77.9591 153.277 77.9591 142.473 84.6225 135.81C91.2859 129.147 102.089 129.147 108.753 135.81L119.438 146.495L169.935 95.9975C176.598 89.3341 187.402 89.3341 194.065 95.9975Z" fill="#398A61" fill-opacity="0.7"/>
</svg>
