<svg width="21" height="21" viewBox="0 0 21 21" fill="none" xmlns="http://www.w3.org/2000/svg">
<path d="M0 5C0 2.23858 2.23858 0 5 0H16C18.7614 0 21 2.23858 21 5V16C21 18.7614 18.7614 21 16 21H5C2.23858 21 0 18.7614 0 16V5Z" fill="#263547"/>
<g clip-path="url(#clip0_486_1860)">
<path d="M14.6565 5.99195C14.8444 6.17989 14.8602 6.47485 14.7036 6.68065L14.6567 6.73444L11.0686 10.3237L14.6587 13.9138C14.8637 14.1188 14.8637 14.4512 14.6587 14.6562C14.4708 14.8442 14.1758 14.8598 13.97 14.7033L13.9163 14.6562L10.3262 11.0661L6.73903 14.6552C6.53406 14.8603 6.20159 14.8605 5.99657 14.6554C5.80863 14.4675 5.79284 14.1725 5.94945 13.9667L5.99642 13.9129L9.5837 10.3237L5.99563 6.7356C5.7906 6.53057 5.79061 6.19816 5.99563 5.99314C6.18357 5.8052 6.47855 5.78953 6.68435 5.94613L6.73809 5.99314L10.3262 9.58121L13.9141 5.99212C14.119 5.78705 14.4515 5.78693 14.6565 5.99195Z" fill="white" stroke="white" stroke-width="2"/>
</g>
<defs>
<clipPath id="clip0_486_1860">
<rect x="2.1001" y="2.09961" width="16.8" height="16.8" rx="8.4" fill="white"/>
</clipPath>
</defs>
</svg>
