<svg width="30" height="30" viewBox="0 0 30 30" fill="none" xmlns="http://www.w3.org/2000/svg">
<rect width="30" height="30" rx="15" fill="#787878"/>
<path d="M14.5 6C16.0299 6 17.2923 7.14514 17.4768 8.62502L21.4375 8.625C21.7482 8.625 22 8.87684 22 9.1875C22 9.49816 21.7482 9.75 21.4375 9.75H20.4175L19.5068 22.199C19.46 22.8382 19.3808 23.0658 19.2443 23.294C19.1078 23.5221 18.9179 23.6987 18.6804 23.8181C18.4429 23.9376 18.21 24 17.5692 24H11.4308C10.79 24 10.5571 23.9376 10.3196 23.8181C10.0821 23.6987 9.89219 23.5221 9.75571 23.294C9.61923 23.0658 9.53999 22.8382 9.49322 22.199L8.58212 9.75H7.5625C7.25184 9.75 7 9.49816 7 9.1875C7 8.87684 7.25184 8.625 7.5625 8.625L11.5232 8.62502C11.7077 7.14514 12.9701 6 14.5 6ZM19.2895 9.75H9.71013L10.6152 22.1169C10.6462 22.5404 10.6693 22.6297 10.7212 22.7165C10.748 22.7614 10.7784 22.7896 10.8251 22.8131C10.9097 22.8557 10.9949 22.8728 11.3551 22.8748L17.5692 22.875C17.9938 22.875 18.0846 22.8585 18.1749 22.8131C18.2216 22.7896 18.252 22.7614 18.2788 22.7165C18.3307 22.6297 18.3538 22.5404 18.3848 22.1169L19.2895 9.75ZM14.5 12C14.8107 12 15.0625 12.2518 15.0625 12.5625V19.3125C15.0625 19.6232 14.8107 19.875 14.5 19.875C14.1893 19.875 13.9375 19.6232 13.9375 19.3125V12.5625C13.9375 12.2518 14.1893 12 14.5 12ZM17.102 12.0004L17.1562 12.0009C17.4664 12.0181 17.7039 12.2835 17.6866 12.5937L17.3116 19.3437C17.2944 19.6539 17.029 19.8914 16.7188 19.8741C16.4086 19.8569 16.1711 19.5915 16.1884 19.2813L16.5634 12.5313C16.5806 12.2211 16.846 11.9836 17.1562 12.0009L17.102 12.0004ZM11.8438 12.0009C12.154 11.9836 12.4194 12.2211 12.4366 12.5313L12.8116 19.2813C12.8289 19.5915 12.5914 19.8569 12.2812 19.8741C11.971 19.8914 11.7056 19.6539 11.6884 19.3437L11.3134 12.5937C11.2961 12.2835 11.5336 12.0181 11.8438 12.0009ZM14.5 7.125C13.5929 7.125 12.8362 7.76916 12.6625 8.625H16.3375C16.1638 7.76916 15.4071 7.125 14.5 7.125Z" fill="white"/>
</svg>
