<svg width="141" height="41" viewBox="0 0 141 41" fill="none" xmlns="http://www.w3.org/2000/svg">
<rect x="0.5" y="0.5" width="140" height="40" rx="20" fill="#192430" stroke="#29A9EB"/>
<path fill-rule="evenodd" clip-rule="evenodd" d="M30.0099 9C23.3687 9 18 14.2708 18 20.7915C18 26.0039 21.4399 30.416 26.2121 31.9776C26.8087 32.095 27.0272 31.7239 27.0272 31.4117C27.0272 31.1384 27.0076 30.2014 27.0076 29.2251C23.6667 29.928 22.971 27.8194 22.971 27.8194C22.4341 26.4529 21.6386 26.1016 21.6386 26.1016C20.5451 25.3793 21.7182 25.3793 21.7182 25.3793C22.9312 25.4574 23.5676 26.5897 23.5676 26.5897C24.6412 28.3856 26.3711 27.8781 27.0671 27.5657C27.1664 26.8043 27.4847 26.2772 27.8228 25.9845C25.1582 25.7111 22.3547 24.696 22.3547 20.1667C22.3547 18.8782 22.8316 17.8241 23.5873 17.0042C23.4681 16.7114 23.0504 15.5008 23.7068 13.8805C23.7068 13.8805 24.7208 13.5681 27.0073 15.0909C27.9863 14.8328 28.9958 14.7015 30.0099 14.7004C31.024 14.7004 32.0577 14.8372 33.0123 15.0909C35.299 13.5681 36.3131 13.8805 36.3131 13.8805C36.9695 15.5008 36.5515 16.7114 36.4323 17.0042C37.2079 17.8241 37.6652 18.8782 37.6652 20.1667C37.6652 24.696 34.8617 25.6915 32.1772 25.9845C32.6148 26.3553 32.9924 27.058 32.9924 28.1709C32.9924 29.7521 32.9727 31.0212 32.9727 31.4115C32.9727 31.7239 33.1915 32.095 33.7879 31.9779C38.56 30.4158 41.9999 26.0039 41.9999 20.7915C42.0196 14.2708 36.6312 9 30.0099 9Z" fill="#29A9EB"/>
<path d="M65.8548 26.07C65.2015 26.07 64.5901 25.93 64.0208 25.65C63.4608 25.3607 62.9708 24.978 62.5508 24.502C62.1308 24.0167 61.8041 23.4753 61.5708 22.878C61.3375 22.2713 61.2208 21.646 61.2208 21.002C61.2208 20.33 61.3375 19.6953 61.5708 19.098C61.8041 18.4913 62.1261 17.9547 62.5368 17.488C62.9568 17.0213 63.4468 16.6573 64.0068 16.396C64.5761 16.1253 65.1921 15.99 65.8548 15.99C66.8161 15.99 67.6095 16.1907 68.2348 16.592C68.8601 16.9933 69.3315 17.516 69.6488 18.16L68.6828 18.832C68.3935 18.2533 67.9968 17.824 67.4928 17.544C66.9888 17.264 66.4335 17.124 65.8268 17.124C65.3228 17.124 64.8655 17.2313 64.4548 17.446C64.0441 17.6607 63.6895 17.9547 63.3908 18.328C63.1015 18.692 62.8775 19.1073 62.7188 19.574C62.5695 20.0407 62.4948 20.526 62.4948 21.03C62.4948 21.562 62.5788 22.066 62.7468 22.542C62.9241 23.0087 63.1715 23.424 63.4888 23.788C63.8061 24.1427 64.1748 24.4227 64.5948 24.628C65.0148 24.8333 65.4675 24.936 65.9528 24.936C66.5221 24.936 67.0635 24.7913 67.5768 24.502C68.0901 24.2127 68.5755 23.7693 69.0328 23.172V24.474C68.1368 25.538 67.0775 26.07 65.8548 26.07ZM68.8788 21.996H66.7368V21.044H69.9428V26H68.8788V21.996ZM71.6629 26V18.692H72.8949V26H71.6629ZM71.6629 17.32V15.78H72.8949V17.32H71.6629ZM78.6695 25.636C78.5668 25.6827 78.4268 25.7433 78.2495 25.818C78.0722 25.8927 77.8668 25.958 77.6335 26.014C77.4002 26.07 77.1528 26.098 76.8915 26.098C76.5928 26.098 76.3175 26.0467 76.0655 25.944C75.8135 25.832 75.6128 25.664 75.4635 25.44C75.3142 25.2067 75.2395 24.9173 75.2395 24.572V19.658H74.2455V18.692H75.2395V16.256H76.4715V18.692H78.1095V19.658H76.4715V24.194C76.4902 24.4553 76.5788 24.6513 76.7375 24.782C76.8962 24.9033 77.0828 24.964 77.2975 24.964C77.5402 24.964 77.7642 24.922 77.9695 24.838C78.1748 24.754 78.3102 24.6933 78.3755 24.656L78.6695 25.636ZM88.0014 16.06V26H86.7414V21.478H81.2674V26H80.0074V16.06H81.2674V20.358H86.7414V16.06H88.0014ZM90.1183 23.074V18.692H91.3503V22.836C91.3503 23.5827 91.481 24.1427 91.7423 24.516C92.0037 24.8893 92.391 25.076 92.9043 25.076C93.2403 25.076 93.5623 25.006 93.8703 24.866C94.1877 24.7167 94.4723 24.5067 94.7243 24.236C94.9763 23.9653 95.1723 23.6433 95.3123 23.27V18.692H96.5443V24.6C96.5443 24.7493 96.5723 24.8613 96.6283 24.936C96.6937 25.0013 96.7963 25.0387 96.9363 25.048V26C96.7963 26.0187 96.6843 26.028 96.6003 26.028C96.5257 26.0373 96.451 26.042 96.3763 26.042C96.143 26.042 95.9423 25.972 95.7743 25.832C95.6063 25.6827 95.5177 25.5007 95.5083 25.286L95.4803 24.432C95.163 24.9733 94.7337 25.3933 94.1923 25.692C93.6603 25.9907 93.077 26.14 92.4423 26.14C91.677 26.14 91.0983 25.8833 90.7063 25.37C90.3143 24.8473 90.1183 24.082 90.1183 23.074ZM102.349 26.14C101.779 26.14 101.261 26 100.795 25.72C100.328 25.44 99.9592 25.076 99.6885 24.628V26H98.5965V15.78H99.8285V20.148C100.137 19.672 100.515 19.2893 100.963 19C101.411 18.7107 101.933 18.566 102.531 18.566C103.035 18.566 103.487 18.6733 103.889 18.888C104.29 19.0933 104.631 19.378 104.911 19.742C105.2 20.0967 105.419 20.5027 105.569 20.96C105.727 21.408 105.807 21.8793 105.807 22.374C105.807 22.8873 105.718 23.3727 105.541 23.83C105.373 24.278 105.13 24.6793 104.813 25.034C104.495 25.3793 104.127 25.65 103.707 25.846C103.296 26.042 102.843 26.14 102.349 26.14ZM102.041 25.076C102.405 25.076 102.741 25.0013 103.049 24.852C103.357 24.7027 103.623 24.502 103.847 24.25C104.071 23.998 104.243 23.7087 104.365 23.382C104.486 23.0553 104.547 22.7193 104.547 22.374C104.547 21.898 104.444 21.45 104.239 21.03C104.043 20.61 103.763 20.274 103.399 20.022C103.044 19.7607 102.629 19.63 102.153 19.63C101.807 19.63 101.485 19.7093 101.187 19.868C100.888 20.0267 100.622 20.2367 100.389 20.498C100.165 20.75 99.9779 21.03 99.8285 21.338V23.452C99.8752 23.6853 99.9732 23.9 100.123 24.096C100.272 24.292 100.454 24.4647 100.669 24.614C100.883 24.754 101.107 24.866 101.341 24.95C101.583 25.034 101.817 25.076 102.041 25.076Z" fill="#29A9EB"/>
</svg>
