<svg width="122" height="104" viewBox="0 0 122 104" fill="none" xmlns="http://www.w3.org/2000/svg">
<path d="M50.9934 3.21903C68.2485 2.9416 83.5717 11.711 92.4633 25.1296L94.9188 23.644C85.5142 9.38406 69.2569 0.0582733 50.949 0.351067C22.4683 0.805611 -0.326971 24.3467 0.127781 52.8274C0.584427 81.3037 24.1222 104.103 52.6012 103.649C81.0789 103.192 103.879 79.6502 103.424 51.1735C103.287 42.642 101.066 34.6287 97.2778 27.5903L94.8185 29.076C98.3547 35.6915 100.427 43.2147 100.554 51.2196C100.985 78.1162 79.4509 100.35 52.5541 100.778C25.6625 101.211 3.42716 79.6769 2.99554 52.7828C2.56666 25.8832 24.099 3.64939 50.9934 3.21903Z" fill="#787878"/>
<path d="M51.2205 17.4434C63.259 17.2499 73.9495 23.2443 80.2851 32.4822L90.1622 26.5172C81.7606 13.8944 67.3251 5.66445 51.0384 5.92422C25.5889 6.33144 5.29265 27.2898 5.70239 52.7368C6.10981 78.1825 27.0682 98.4827 52.5124 98.074C77.9583 97.6666 98.256 76.7072 97.8497 51.2615C97.7312 43.7458 95.8041 36.6846 92.5121 30.4672L82.6035 36.4517C84.8856 40.9706 86.244 46.0446 86.3305 51.4459C86.6361 70.5293 71.4151 86.2507 52.3279 86.5561C33.2445 86.8615 17.5272 71.6368 17.2178 52.5523C16.9172 33.4676 32.1384 17.7488 51.2205 17.4434Z" fill="#A0A0A0"/>
<path d="M51.4045 28.9613C59.195 28.8366 66.1303 32.6046 70.3947 38.4552L80.2846 32.4822C73.949 23.2443 63.2585 17.2499 51.22 17.4434C32.1379 17.7488 16.9167 33.4676 17.2173 52.5523C17.5267 71.6367 33.244 86.8614 52.3274 86.556C71.4146 86.2506 86.6356 70.5293 86.3299 51.4459C86.2435 46.0446 84.8851 40.9706 82.6029 36.4517L72.7219 42.4205C74.0102 45.23 74.7611 48.3413 74.8133 51.6306C75.0156 64.3527 64.8676 74.8345 52.1415 75.0366C39.4231 75.2419 28.9401 65.0897 28.7377 52.3688C28.5339 39.6429 38.6849 29.1649 51.4045 28.9613Z" fill="white"/>
<path d="M51.5901 40.4809C55.1303 40.4234 58.3177 41.9715 60.4691 44.4487L70.3943 38.4555C66.1299 32.6049 59.1946 28.8369 51.4041 28.9617C38.6845 29.1653 28.5336 39.6433 28.7374 52.3692C28.9397 65.0901 39.4228 75.2423 52.1411 75.037C64.8673 74.8348 75.0153 64.353 74.8129 51.6309C74.7608 48.3416 74.0098 45.2303 72.7215 42.4208L62.7361 48.4523C63.0785 49.5141 63.2733 50.6417 63.2912 51.8156C63.3943 58.1767 58.3215 63.416 51.9567 63.5193C45.5981 63.6211 40.3584 58.5443 40.2553 52.1845C40.156 45.8211 45.2275 40.5814 51.5901 40.4809Z" fill="#A0A0A0"/>
<path d="M53.3008 48.7778L60.4691 44.4484C58.3177 41.9713 55.1303 40.4232 51.5901 40.4806C45.2275 40.5812 40.1561 45.8209 40.2553 52.1843C40.3584 58.5441 45.5982 63.6208 51.9567 63.519C58.3215 63.4157 63.3943 58.1764 63.2912 51.8153C63.2733 50.6414 63.0786 49.5138 62.7361 48.452L55.3936 52.8858C54.4643 53.4472 53.2539 53.1708 52.6529 52.2594L52.5435 52.0915C51.8166 50.9738 52.1565 49.4715 53.3008 48.7778Z" fill="white"/>
<path d="M117.91 22.9131C118.369 23.1552 118.923 23.1386 119.364 22.8712L120.881 21.9558C121.11 21.8172 121.248 21.565 121.238 21.2979C121.235 21.0291 121.08 20.7861 120.843 20.6614L113.823 16.9607L114.612 16.486C114.779 16.384 114.903 16.2159 114.948 16.0226C114.995 15.8316 114.96 15.6253 114.855 15.4574L113.867 13.8713C113.651 13.5261 113.198 13.4192 112.849 13.6281L112.035 14.1195L111.865 6.26394C111.858 6.00165 111.713 5.75849 111.481 5.63124C111.25 5.50398 110.966 5.50777 110.739 5.64533L109.231 6.55673C108.778 6.82912 108.506 7.32299 108.517 7.85115L108.699 16.136L108.299 16.3817L108.123 8.52592C108.12 8.26131 107.97 8.01816 107.739 7.88943C107.51 7.7647 107.225 7.76849 106.994 7.90605L105.486 8.81618C105.031 9.0911 104.763 9.58371 104.772 10.1121L104.956 18.398L104.551 18.6424L104.376 10.7868C104.373 10.5208 104.225 10.2802 103.993 10.1516C103.765 10.0242 103.479 10.0269 103.249 10.1668L101.743 11.0769C101.29 11.3493 101.02 11.8446 101.03 12.3718L101.188 19.4278C101.191 19.6911 101.056 19.937 100.834 20.0718L94.9185 23.6438L92.463 25.1294L90.1615 26.517L80.2844 32.482L70.3945 38.455L60.4693 44.4482L53.3009 48.7776C52.1567 49.4713 51.8168 50.9735 52.5437 52.0913L52.6531 52.2591C53.254 53.1705 54.4645 53.4469 55.3938 52.8855L62.7363 48.4518L72.7217 42.4203L82.6028 36.4515L92.5114 30.467L94.8182 29.0758L97.2775 27.5902L103.188 24.0207C103.406 23.887 103.681 23.8781 103.907 23.9991L110.426 27.435C110.883 27.6766 111.436 27.6615 111.879 27.3916L113.396 26.4762C113.624 26.3389 113.76 26.0867 113.755 25.8193C113.746 25.5509 113.592 25.3076 113.359 25.1841L106.336 21.4849L106.723 21.2518L114.17 25.174C114.628 25.4172 115.178 25.4006 115.622 25.1322L117.139 24.2168C117.368 24.0754 117.505 23.826 117.5 23.5561C117.493 23.29 117.34 23.0471 117.103 22.9221L110.081 19.224L110.464 18.9899L117.91 22.9131Z" fill="#DEDEDE"/>
</svg>
