<svg width="122" height="104" viewBox="0 0 122 104" fill="none" xmlns="http://www.w3.org/2000/svg">
<path d="M50.9924 3.21903C68.2475 2.9416 83.5707 11.711 92.4623 25.1296L94.9178 23.644C85.5132 9.38406 69.2559 0.0582733 50.948 0.351067C22.4673 0.805611 -0.327948 24.3467 0.126805 52.8274C0.58345 81.3037 24.1212 104.103 52.6002 103.649C81.078 103.192 103.878 79.6502 103.423 51.1735C103.286 42.642 101.065 34.6287 97.2768 27.5903L94.8175 29.076C98.3537 35.6915 100.426 43.2147 100.553 51.2196C100.984 78.1162 79.4499 100.35 52.5531 100.778C25.6615 101.211 3.42618 79.6769 2.99456 52.7828C2.56568 25.8832 24.0981 3.64939 50.9924 3.21903Z" fill="#E84A58"/>
<path d="M51.2195 17.4434C63.2581 17.2499 73.9485 23.2443 80.2841 32.4822L90.1612 26.5172C81.7597 13.8944 67.3241 5.66445 51.0374 5.92422C25.5879 6.33144 5.29167 27.2898 5.70141 52.7368C6.10883 78.1825 27.0672 98.4827 52.5114 98.074C77.9574 97.6666 98.2551 76.7072 97.8487 51.2615C97.7303 43.7458 95.8031 36.6846 92.5111 30.4672L82.6025 36.4517C84.8847 40.9706 86.243 46.0446 86.3295 51.4459C86.6351 70.5293 71.4141 86.2507 52.327 86.5561C33.2436 86.8615 17.5262 71.6368 17.2168 52.5523C16.9162 33.4676 32.1374 17.7488 51.2195 17.4434Z" fill="#D6DEE9"/>
<path d="M51.4035 28.9613C59.194 28.8366 66.1293 32.6046 70.3937 38.4552L80.2836 32.4822C73.948 23.2443 63.2575 17.2499 51.219 17.4434C32.1369 17.7488 16.9157 33.4676 17.2163 52.5523C17.5257 71.6367 33.243 86.8614 52.3264 86.556C71.4136 86.2506 86.6346 70.5293 86.329 51.4459C86.2425 46.0446 84.8841 40.9706 82.602 36.4517L72.7209 42.4205C74.0092 45.23 74.7601 48.3413 74.8123 51.6306C75.0146 64.3527 64.8666 74.8345 52.1405 75.0366C39.4222 75.2419 28.9391 65.0897 28.7368 52.3688C28.5329 39.6429 38.6839 29.1649 51.4035 28.9613Z" fill="#750F18"/>
<path d="M51.5891 40.4809C55.1293 40.4234 58.3168 41.9715 60.4681 44.4487L70.3934 38.4555C66.1289 32.6049 59.1937 28.8369 51.4031 28.9617C38.6835 29.1653 28.5326 39.6433 28.7364 52.3692C28.9388 65.0901 39.4218 75.2423 52.1402 75.037C64.8663 74.8348 75.0143 64.353 74.8119 51.6309C74.7598 48.3416 74.0089 45.2303 72.7205 42.4208L62.7351 48.4523C63.0776 49.5141 63.2723 50.6417 63.2902 51.8156C63.3933 58.1767 58.3205 63.416 51.9557 63.5193C45.5972 63.6211 40.3574 58.5443 40.2543 52.1845C40.1551 45.8211 45.2265 40.5814 51.5891 40.4809Z" fill="#ACBED3"/>
<path d="M53.2998 48.7778L60.4681 44.4484C58.3168 41.9713 55.1293 40.4232 51.5891 40.4806C45.2266 40.5812 40.1551 45.8209 40.2544 52.1843C40.3574 58.5441 45.5972 63.6208 51.9557 63.519C58.3206 63.4157 63.3933 58.1764 63.2902 51.8153C63.2724 50.6414 63.0776 49.5138 62.7352 48.452L55.3926 52.8858C54.4634 53.4472 53.2529 53.1708 52.6519 52.2594L52.5426 52.0915C51.8156 50.9738 52.1555 49.4715 53.2998 48.7778Z" fill="#C41928"/>
<path d="M117.909 22.9131C118.368 23.1552 118.922 23.1386 119.363 22.8712L120.88 21.9558C121.109 21.8172 121.247 21.565 121.237 21.2979C121.234 21.0291 121.079 20.7861 120.842 20.6614L113.822 16.9607L114.611 16.486C114.778 16.384 114.902 16.2159 114.947 16.0226C114.994 15.8316 114.959 15.6253 114.854 15.4574L113.866 13.8713C113.65 13.5261 113.197 13.4192 112.848 13.6281L112.034 14.1195L111.864 6.26394C111.857 6.00165 111.712 5.75849 111.48 5.63124C111.249 5.50398 110.965 5.50777 110.738 5.64533L109.23 6.55673C108.777 6.82912 108.505 7.32299 108.516 7.85115L108.698 16.136L108.298 16.3817L108.122 8.52592C108.119 8.26131 107.969 8.01816 107.738 7.88943C107.509 7.7647 107.224 7.76849 106.993 7.90605L105.485 8.81618C105.03 9.0911 104.762 9.58371 104.771 10.1121L104.955 18.398L104.55 18.6424L104.375 10.7868C104.372 10.5208 104.224 10.2802 103.992 10.1516C103.764 10.0242 103.478 10.0269 103.248 10.1668L101.742 11.0769C101.289 11.3493 101.019 11.8446 101.029 12.3718L101.187 19.4278C101.19 19.6911 101.055 19.937 100.833 20.0718L94.9176 23.6438L92.4621 25.1294L90.1605 26.517L80.2835 32.482L70.3936 38.455L60.4683 44.4482L53.3 48.7776C52.1557 49.4713 51.8158 50.9735 52.5427 52.0913L52.6521 52.2591C53.2531 53.1705 54.4636 53.4469 55.3928 52.8855L62.7353 48.4518L72.7207 42.4203L82.6018 36.4515L92.5105 30.467L94.8172 29.0758L97.2765 27.5902L103.187 24.0207C103.405 23.887 103.68 23.8781 103.906 23.9991L110.425 27.435C110.882 27.6766 111.435 27.6615 111.878 27.3916L113.395 26.4762C113.623 26.3389 113.759 26.0867 113.754 25.8193C113.745 25.5509 113.591 25.3076 113.358 25.1841L106.335 21.4849L106.722 21.2518L114.169 25.174C114.627 25.4172 115.177 25.4006 115.621 25.1322L117.138 24.2168C117.367 24.0754 117.504 23.826 117.499 23.5561C117.492 23.29 117.339 23.0471 117.102 22.9221L110.08 19.224L110.463 18.9899L117.909 22.9131Z" fill="white"/>
</svg>
