<svg width="15" height="15" viewBox="0 0 15 15" fill="none" xmlns="http://www.w3.org/2000/svg">
<path d="M14.214 0.786078C13.1657 -0.262071 11.4664 -0.262019 10.4183 0.786191L1.45577 9.74975C1.15103 10.0546 0.936826 10.438 0.837001 10.8572L0.0153067 14.3083C-0.0299334 14.4983 0.0266392 14.6982 0.164759 14.8363C0.302887 14.9745 0.502777 15.031 0.692798 14.9858L4.14374 14.1641C4.56314 14.0643 4.9466 13.85 5.25144 13.5451L12.7496 6.04602C13.2583 6.55894 13.257 7.38702 12.7457 7.8983L11.4082 9.23585C11.1885 9.45553 11.1885 9.8117 11.4082 10.0314C11.6279 10.2511 11.984 10.2511 12.2036 10.0314L13.5413 8.69382C14.4918 7.7432 14.4932 6.20277 13.5451 5.25049L14.214 4.58147C15.262 3.53335 15.262 1.83413 14.214 0.786078ZM11.2139 1.58163C11.8226 0.972821 12.8096 0.972791 13.4184 1.58157C14.0271 2.19031 14.0272 3.17725 13.4185 3.78602L4.4559 12.7497C4.29829 12.9073 4.10002 13.0181 3.88317 13.0697L1.32143 13.6797L1.93141 11.1178C1.98302 10.901 2.09376 10.7028 2.25132 10.5452L11.2139 1.58163Z" fill="white"/>
</svg>
