<svg width="20" height="17" viewBox="0 0 20 17" fill="none" xmlns="http://www.w3.org/2000/svg">
<path fill-rule="evenodd" clip-rule="evenodd" d="M6.7793 1.89421C7.08886 2.29701 7.65949 2.80122 8.05131 3.19302C9.12926 4.27096 8.78539 4.1124 9.53906 4.01454C11.2553 3.79163 12.6061 4.71274 13.2232 5.56407C13.8548 6.43547 14.1771 7.43289 14.0088 8.56081C13.9172 9.1746 13.8829 9.03898 14.2499 9.39468L16.8985 12.0001C17.5917 11.4748 18.7423 10.0156 19.2895 9.21856C20.1956 7.89859 20.438 8.29262 18.7879 6.11633C17.251 4.08927 15.2866 2.41315 12.7389 1.68755C10.8546 1.15089 8.56972 1.17348 6.7793 1.89421Z" fill="white"/>
<path fill-rule="evenodd" clip-rule="evenodd" d="M13.2946 14.1488C13.0235 13.7106 12.4019 13.2038 12.0092 12.8109C10.9197 11.7211 11.2691 11.8954 10.5187 11.9921C8.26146 12.2829 6.41017 10.6633 6.06574 8.69189C5.79318 7.13183 6.454 7.23578 5.85302 6.65247C5.41019 6.22266 3.54035 4.2766 3.24124 4.08887C2.24138 5.07075 0.649654 6.72875 0 8.00335C0.346384 8.87218 1.62678 10.3372 2.15696 11.0164C2.38823 11.3126 2.60208 11.4128 2.83834 11.6748C5.34268 14.4528 9.61469 15.338 13.2946 14.1488Z" fill="white"/>
<path fill-rule="evenodd" clip-rule="evenodd" d="M17.1521 16.007C17.5086 15.8057 17.8669 15.4357 18.0309 15.1263C17.7658 14.6185 7.4582 4.47221 6.69633 3.71034C6.04736 3.06137 5.45982 2.47381 4.81086 1.82485C4.43386 1.44787 3.30249 0.21576 2.90617 0C2.622 0.154117 2.18207 0.595684 2.02539 0.879784L17.1521 16.007Z" fill="white"/>
<path fill-rule="evenodd" clip-rule="evenodd" d="M12.673 7.81538C12.6958 6.55969 11.4702 5.37589 10.2241 5.3501L12.673 7.81538Z" fill="white"/>
<path fill-rule="evenodd" clip-rule="evenodd" d="M9.83401 10.6569L7.38504 8.18896C7.36359 9.45563 8.58774 10.6204 9.83401 10.6569Z" fill="white"/>
</svg>
