<svg width="25" height="25" viewBox="0 0 25 25" fill="none" xmlns="http://www.w3.org/2000/svg">
<g clip-path="url(#clip0_628_2061)">
<circle cx="12.5" cy="12.5" r="12.5" fill="#27A6E6"/>
<rect x="6" y="6" width="13" height="13" fill="white"/>
<path d="M18.6431 5H6.35687C5.6075 5 5 5.6075 5 6.35687V18.6431C5 19.3925 5.6075 20 6.35687 20H18.6431C19.3925 20 20 19.3925 20 18.6431V6.35687C20 5.6075 19.3925 5 18.6431 5ZM9.64164 17.952C9.64164 18.1701 9.46486 18.3469 9.24677 18.3469H7.5659C7.34781 18.3469 7.17103 18.1701 7.17103 17.952V10.9059C7.17103 10.6878 7.34781 10.511 7.5659 10.511H9.24677C9.46486 10.511 9.64164 10.6878 9.64164 10.9059V17.952ZM8.40633 9.84681C7.52444 9.84681 6.8095 9.13187 6.8095 8.24997C6.8095 7.36808 7.52444 6.65314 8.40633 6.65314C9.28823 6.65314 10.0032 7.36808 10.0032 8.24997C10.0032 9.13187 9.28827 9.84681 8.40633 9.84681ZM18.4258 17.9838C18.4258 18.1843 18.2632 18.3469 18.0627 18.3469H16.259C16.0585 18.3469 15.896 18.1843 15.896 17.9838V14.6788C15.896 14.1857 16.0406 12.5183 14.6075 12.5183C13.4959 12.5183 13.2704 13.6596 13.2251 14.1718V17.9838C13.2251 18.1843 13.0626 18.3469 12.8621 18.3469H11.1176C10.9171 18.3469 10.7545 18.1843 10.7545 17.9838V10.8741C10.7545 10.6736 10.9171 10.511 11.1176 10.511H12.8621C13.0626 10.511 13.2251 10.6736 13.2251 10.8741V11.4888C13.6373 10.8702 14.2499 10.3928 15.5541 10.3928C18.4423 10.3928 18.4258 13.091 18.4258 14.5736V17.9838Z" fill="#27A6E6"/>
</g>
<defs>
<clipPath id="clip0_628_2061">
<rect width="25" height="25" fill="white"/>
</clipPath>
</defs>
</svg>
