<svg width="20" height="21" viewBox="0 0 20 21" fill="none" xmlns="http://www.w3.org/2000/svg">
<path d="M18.9519 1.0481C17.5543 -0.349427 15.2885 -0.349357 13.8911 1.04825L1.94103 12.9996C1.5347 13.406 1.2491 13.9172 1.116 14.4762L0.0204088 19.0777C-0.0399112 19.331 0.0355188 19.5975 0.219679 19.7817C0.403849 19.9659 0.670369 20.0413 0.923729 19.981L5.52498 18.8854C6.08418 18.7523 6.59546 18.4666 7.00191 18.0601L16.9995 8.06134C17.6777 8.74524 17.676 9.84934 16.9943 10.531L15.2109 12.3144C14.918 12.6073 14.918 13.0822 15.2109 13.3751C15.5038 13.668 15.9786 13.668 16.2715 13.3751L18.055 11.5917C19.3224 10.3242 19.3242 8.27034 18.0601 7.00064L18.952 6.10861C20.3493 4.71112 20.3493 2.4455 18.9519 1.0481ZM14.9518 2.10884C15.7634 1.29709 17.0795 1.29705 17.8912 2.10876C18.7028 2.9204 18.7029 4.23632 17.8913 5.04801L5.94119 16.9995C5.73104 17.2097 5.46668 17.3574 5.17755 17.4262L1.76191 18.2395L2.57521 14.8236C2.64402 14.5346 2.79168 14.2703 3.00175 14.0602L14.9518 2.10884Z" fill="#0F151C"/>
</svg>
