<svg width="19" height="21" viewBox="0 0 19 21" fill="none" xmlns="http://www.w3.org/2000/svg">
<path d="M17.3863 1.0481C16.1042 -0.349427 14.0255 -0.349357 12.7436 1.04825L1.78068 12.9996C1.40792 13.406 1.14591 13.9172 1.02381 14.4762L0.0187229 19.0777C-0.0366142 19.331 0.0325847 19.5975 0.201531 19.7817C0.370487 19.9659 0.61499 20.0413 0.847421 19.981L5.06857 18.8854C5.58157 18.7523 6.05062 18.4666 6.42349 18.0601L15.5952 8.06134C16.2174 8.74524 16.2158 9.84934 15.5904 10.531L13.9543 12.3144C13.6856 12.6073 13.6856 13.0822 13.9543 13.3751C14.2231 13.668 14.6586 13.668 14.9273 13.3751L16.5635 11.5917C17.7262 10.3242 17.7279 8.27034 16.5682 7.00064L17.3864 6.10861C18.6683 4.71112 18.6683 2.4455 17.3863 1.0481ZM13.7167 2.10884C14.4612 1.29709 15.6686 1.29705 16.4132 2.10876C17.1578 2.9204 17.1579 4.23632 16.4133 5.04801L5.4504 16.9995C5.25761 17.2097 5.01508 17.3574 4.74984 17.4262L1.61636 18.2395L2.36247 14.8236C2.4256 14.5346 2.56106 14.2703 2.75378 14.0602L13.7167 2.10884Z" fill="white"/>
</svg>
