<svg width="30" height="30" viewBox="0 0 30 30" fill="none" xmlns="http://www.w3.org/2000/svg">
<rect width="30" height="30" rx="5" fill="#435E7E"/>
<path d="M14.75 6C15.1297 6 15.4436 6.28201 15.4933 6.64808L15.5002 6.74985L15.5014 14H22.7545C23.1687 14 23.5045 14.3358 23.5045 14.75C23.5045 15.1297 23.2223 15.4435 22.8563 15.4932L22.7545 15.5H15.5014L15.5034 22.7491C15.5035 23.1633 15.1678 23.4993 14.7536 23.4993C14.3739 23.4993 14.06 23.2173 14.0103 22.8512L14.0034 22.7494L14.0014 15.5H6.75244C6.33822 15.5 6.00244 15.1642 6.00244 14.75C6.00244 14.3703 6.28459 14.0565 6.65067 14.0068L6.75244 14H14.0014L14.0002 6.75015C14.0001 6.33594 14.3358 6 14.75 6Z" fill="white" stroke="white" stroke-width="4"/>
</svg>
