<svg width="16" height="19" viewBox="0 0 16 19" fill="none" xmlns="http://www.w3.org/2000/svg">
<path d="M6.75 11.75C7.4404 11.75 8 11.1904 8 10.5C8 9.8096 7.4404 9.25 6.75 9.25C6.0596 9.25 5.5 9.8096 5.5 10.5C5.5 11.1904 6.0596 11.75 6.75 11.75ZM3.25 3.5C3.25 1.567 4.817 0 6.75 0C8.683 0 10.25 1.567 10.25 3.5V4.5H11.25C12.4926 4.5 13.5 5.50736 13.5 6.75V14.25C13.5 15.4926 12.4926 16.5 11.25 16.5H2.25C1.00736 16.5 0 15.4926 0 14.25V6.75C0 5.50736 1.00736 4.5 2.25 4.5H3.25V3.5ZM8.75 3.5C8.75 2.39543 7.8546 1.5 6.75 1.5C5.64543 1.5 4.75 2.39543 4.75 3.5V4.5H8.75V3.5ZM1.5 6.75V14.25C1.5 14.6642 1.83579 15 2.25 15H11.25C11.6642 15 12 14.6642 12 14.25V6.75C12 6.33579 11.6642 6 11.25 6H2.25C1.83579 6 1.5 6.33579 1.5 6.75ZM5.7499 19C4.77024 19 3.93681 18.3739 3.62793 17.5H11.7499C13.2687 17.5 14.4999 16.2688 14.4999 14.75V8.1281C15.3738 8.4369 15.9999 9.2704 15.9999 10.25V14.75C15.9999 17.0972 14.0971 19 11.7499 19H5.7499Z" fill="white"/>
</svg>
