<svg width="97" height="74" viewBox="0 0 97 74" fill="none" xmlns="http://www.w3.org/2000/svg">
<path d="M70.9832 4.05483L12.1771 38.0759C10.5934 38.9921 10.0523 41.024 10.9685 42.6142L24.974 66.9218C25.8902 68.512 27.9168 69.0583 29.5006 68.1421L88.3066 34.121C89.8904 33.2048 90.4315 31.173 89.5152 29.5828L75.5098 5.27514C74.5936 3.68495 72.567 3.1386 70.9832 4.05483Z" fill="#98D4B6"/>
<path d="M6.90677 31.9448L72.5144 14.3653C74.0129 13.9638 75.5574 14.8571 75.9615 16.3651L83.2241 43.4693C83.6281 44.9774 82.7372 46.5232 81.2386 46.9247L15.631 64.5042C14.1325 64.9058 12.588 64.0125 12.1839 62.5045L4.92135 35.4002C4.51728 33.8922 5.40822 32.3464 6.90677 31.9448Z" fill="#65BF92" stroke="white"/>
<path d="M22.7562 43.8887L18.8635 44.9318C17.3516 45.3369 16.2662 46.1885 16.4391 46.834C16.6121 47.4795 17.9779 47.6743 19.4898 47.2692L23.3825 46.2262C24.8944 45.8211 25.9798 44.9694 25.8069 44.3239C25.6339 43.6785 24.2681 43.4836 22.7562 43.8887Z" fill="white"/>
<path d="M68.6527 31.5909L64.76 32.6339C63.2481 33.039 62.1627 33.8907 62.3356 34.5362C62.5086 35.1816 63.8744 35.3765 65.3863 34.9714L69.279 33.9283C70.7909 33.5232 71.8763 32.6716 71.7034 32.0261C71.5304 31.3806 70.1646 31.1858 68.6527 31.5909Z" fill="white"/>
<path d="M78.8967 44.9268L16.6602 61.603L17.4459 64.5355L79.6824 47.8593L78.8967 44.9268Z" fill="white"/>
<path d="M73.9657 18.6737L80.3389 42.4585L83.261 41.6755L76.8879 17.8907L73.9657 18.6737Z" fill="white"/>
<path d="M12.4848 30.4502C13.4464 35.0039 10.8261 39.559 6.4217 40.9996L4.92135 35.4002C4.51924 33.8995 5.41551 32.3444 6.90677 31.9448L12.4848 30.4502Z" fill="white" stroke="white"/>
<path d="M10.6833 56.9052C15.2179 55.9506 19.7647 58.5853 21.2088 63.0097L15.6307 64.5044C14.1395 64.9039 12.5857 64.0052 12.1836 62.5046L10.6833 56.9052Z" fill="white" stroke="white"/>
<path d="M75.6608 48.4194C74.6992 43.8657 77.3195 39.3105 81.7239 37.87L83.2243 43.4693C83.6264 44.97 82.7301 46.5252 81.2388 46.9248L75.6608 48.4194Z" fill="white" stroke="white"/>
<path d="M77.4614 21.9644C72.9268 22.919 68.3799 20.2843 66.9359 15.8599L72.5139 14.3652C74.0052 13.9656 75.5589 14.8643 75.961 16.365L77.4614 21.9644Z" fill="white" stroke="white"/>
<path d="M47.2588 51.3271C53.8037 49.5734 57.6826 42.8273 55.9228 36.2593C54.1629 29.6913 47.4305 25.7885 40.8857 27.5422C34.3408 29.2959 30.4618 36.042 32.2217 42.61C33.9816 49.178 40.714 53.0808 47.2588 51.3271Z" fill="white"/>
<path fill-rule="evenodd" clip-rule="evenodd" d="M46.08 43.5839C45.7175 42.2689 45.4681 41.3381 45.1121 40.0094C47.0195 40.0256 48.0589 42.3502 46.08 43.5839ZM41.7544 35.322C41.9401 36.0446 42.2031 37.0261 42.4039 37.7753C40.8766 37.505 40.5659 35.9407 41.7544 35.322ZM41.2095 33.3175C37.7804 35.2273 38.717 39.119 42.9397 39.7752L44.1565 44.3161C42.2689 44.6476 41.4072 43.4 41.3273 45.2816C41.2924 46.1037 43.4664 46.1866 44.685 46.1918C45.5765 48.3295 46.9146 48.0686 46.5344 45.672C50.7234 42.8242 49.1611 38.851 44.5777 38.0148C44.3583 37.1962 43.8361 35.2472 43.6516 34.5586C44.2225 34.6671 45.0207 35.0606 45.4726 34.6957C46.7894 33.6327 44.6357 32.8306 43.1592 32.7303C42.6566 30.8437 40.5066 30.6943 41.2095 33.3175Z" fill="#2B6749"/>
</svg>
